<svg width="20" height="15" viewBox="0 0 20 15" fill="none" xmlns="http://www.w3.org/2000/svg">
<path d="M6 1L4 5M14 1L16 5" stroke="#222222" stroke-width="2" stroke-linecap="round"/>
<path fill-rule="evenodd" clip-rule="evenodd" d="M19 6H17.8022C17.3335 6 16.9277 6.32553 16.826 6.78307L15.348 13.4339C15.1447 14.3489 14.3331 15 13.3957 15H6.60434C5.66695 15 4.85532 14.3489 4.65197 13.4339L3.17402 6.78307C3.07234 6.32553 2.66653 6 2.19783 6H1C0.447715 6 0 5.55228 0 5C0 4.44772 0.447715 4 1 4H19C19.5523 4 20 4.44772 20 5C20 5.55228 19.5523 6 19 6ZM9 8C9 7.44772 8.55228 7 8 7C7.44772 7 7 7.44772 7 8V11C7 11.5523 7.44772 12 8 12C8.55229 12 9 11.5523 9 11V8ZM13 8C13 7.44772 12.5523 7 12 7C11.4477 7 11 7.44772 11 8V11C11 11.5523 11.4477 12 12 12C12.5523 12 13 11.5523 13 11V8Z" fill="#222222"/>
</svg>
